<svg id="_x31_px" enable-background="new 0 0 24 24" height="512" viewBox="0 0 24 24" width="512" xmlns="http://www.w3.org/2000/svg"><path d="m21.5 24h-18c-1.378 0-2.5-1.122-2.5-2.5v-19c0-1.378 1.122-2.5 2.5-2.5h16c.276 0 .5.224.5.5v3.5h1.5c.276 0 .5.224.5.5v19c0 .276-.224.5-.5.5zm-19.5-19.501v17.001c0 .827.673 1.5 1.5 1.5h17.5v-18h-17.5c-.562 0-1.082-.187-1.5-.501zm1.5-3.499c-.827 0-1.5.673-1.5 1.5s.673 1.5 1.5 1.5h15.5v-3z"/><path d="m14.5 14c-.13 0-.258-.051-.354-.146l-2.646-2.647-2.646 2.646c-.144.144-.358.187-.545.108-.187-.076-.309-.259-.309-.461v-9c0-.276.224-.5.5-.5s.5.224.5.5v7.793l2.146-2.146c.195-.195.512-.195.707 0l2.147 2.146v-7.793c0-.276.224-.5.5-.5s.5.224.5.5v9c0 .202-.122.385-.309.462-.062.026-.127.038-.191.038z"/></svg>