<?xml version="1.0" encoding="iso-8859-1"?>
<!-- Generator: Adobe Illustrator 19.0.0, SVG Export Plug-In . SVG Version: 6.00 Build 0)  -->
<svg version="1.1" id="Layer_1" xmlns="http://www.w3.org/2000/svg" xmlns:xlink="http://www.w3.org/1999/xlink" x="0px" y="0px"
	 viewBox="0 0 511.724 511.724" style="enable-background:new 0 0 511.724 511.724;" xml:space="preserve">
<path style="fill:#84DBFF;" d="M458.667,439.329H21.333C9.6,439.329,0,429.729,0,417.995v-259.2c0-11.733,9.6-21.333,21.333-21.333
	h437.333c11.733,0,21.333,9.6,21.333,21.333v258.133C480,429.729,470.4,439.329,458.667,439.329z"/>
<rect y="191.862" style="fill:#40596B;" width="480" height="60.8"/>
<g>
	<path style="fill:#FFFFFF;" d="M110.933,298.529L110.933,298.529c0,6.4-5.333,11.733-11.733,11.733H33.067
		c-6.4,0-11.733-5.333-11.733-11.733l0,0c0-6.4,5.333-11.733,11.733-11.733h67.2C105.6,286.795,110.933,292.129,110.933,298.529z"/>
	<path style="fill:#FFFFFF;" d="M212.267,298.529L212.267,298.529c0,6.4-5.333,11.733-11.733,11.733h-67.2
		c-6.4,0-11.733-5.333-11.733-11.733l0,0c0-6.4,5.333-11.733,11.733-11.733h67.2C206.933,286.795,212.267,292.129,212.267,298.529z"
		/>
</g>
<path style="fill:#54C0EB;" d="M212.267,342.262L212.267,342.262c0,6.4-5.333,11.733-11.733,11.733H33.067
	c-6.4,0-11.733-5.333-11.733-11.733l0,0c0-6.4,5.333-11.733,11.733-11.733h167.467C206.933,330.529,212.267,335.862,212.267,342.262
	z"/>
<path style="fill:#FFD15C;" d="M397.867,358.262C252.8,296.395,288,106.529,288,106.529c66.133-3.2,109.867-34.133,109.867-34.133
	s43.733,30.933,109.867,34.133C507.733,106.529,544,296.395,397.867,358.262z"/>
<path style="fill:#FF7058;" d="M397.867,337.995c-102.4-49.067-98.133-171.733-93.867-213.333
	c43.733-4.267,76.8-20.267,93.867-29.867c16,9.6,49.067,24.533,93.867,29.867C496,166.262,500.267,287.862,397.867,337.995z"/>
<polygon style="fill:#FFFFFF;" points="379.733,245.195 345.6,211.062 360.533,196.129 379.733,216.395 436.267,158.795 
	451.2,173.729 "/>
<g>
</g>
<g>
</g>
<g>
</g>
<g>
</g>
<g>
</g>
<g>
</g>
<g>
</g>
<g>
</g>
<g>
</g>
<g>
</g>
<g>
</g>
<g>
</g>
<g>
</g>
<g>
</g>
<g>
</g>
</svg>
