<?xml version="1.0" encoding="iso-8859-1"?>
<!-- Generator: Adobe Illustrator 19.0.0, SVG Export Plug-In . SVG Version: 6.00 Build 0)  -->
<svg version="1.1" id="Layer_1" xmlns="http://www.w3.org/2000/svg" xmlns:xlink="http://www.w3.org/1999/xlink" x="0px" y="0px"
	 viewBox="0 0 511.773 511.773" style="enable-background:new 0 0 511.773 511.773;" xml:space="preserve">
<path style="fill:#4CDBC4;" d="M495.655,173.639v168.533c0,13.867-10.667,24.533-24.533,24.533H98.855
	c-13.867,0-24.533-10.667-24.533-24.533V173.639c0-13.867,10.667-24.533,24.533-24.533h371.2
	C483.922,149.106,495.655,160.839,495.655,173.639z"/>
<path style="fill:#F2F2F2;" d="M98.855,300.573v-84.267c23.467,0,42.667-19.2,42.667-42.667h288c0,23.467,19.2,42.667,42.667,42.667
	v84.267c-23.467,0-42.667,19.2-42.667,42.667h-288C141.522,319.773,122.322,300.573,98.855,300.573z"/>
<g>
	<circle style="fill:#4CDBC4;" cx="184.189" cy="257.906" r="13.867"/>
	<circle style="fill:#4CDBC4;" cx="385.789" cy="257.906" r="13.867"/>
	<path style="fill:#4CDBC4;" d="M338.855,257.906c0,37.333-23.467,67.2-53.333,67.2c-4.267,0-7.467-1.067-11.733-1.067
		c-23.467-6.4-41.6-34.133-41.6-66.133c0-1.067,0-3.2,0-4.267c2.133-35.2,24.533-62.933,53.333-62.933
		C314.322,190.706,338.855,220.573,338.855,257.906z"/>
</g>
<path style="fill:#FFFFFF;" d="M281.255,284.573v-23.467c-7.467-2.133-12.8-5.333-16-9.6c-3.2-4.267-5.333-9.6-5.333-16
	s2.133-11.733,5.333-16c4.267-4.267,9.6-6.4,16-7.467v-5.333h8.533v6.4c6.4,1.067,10.667,3.2,13.867,6.4
	c3.2,3.2,5.333,7.467,6.4,13.867l-13.867,1.067c-1.067-4.267-3.2-7.467-6.4-9.6v22.4c9.6,2.133,14.933,5.333,18.133,9.6
	c3.2,4.267,5.333,8.533,5.333,14.933s-2.133,12.8-6.4,17.067s-9.6,7.467-17.067,8.533v10.667h-8.533v-10.667
	c-6.4-1.067-11.733-3.2-16-7.467s-6.4-9.6-7.467-17.067l14.933-1.067c1.067,3.2,2.133,5.333,3.2,7.467
	C276.989,282.439,279.122,283.506,281.255,284.573z M281.255,225.906c-2.133,1.067-4.267,2.133-5.333,4.267s-2.133,4.267-2.133,6.4
	c0,2.133,1.067,4.267,2.133,5.333c1.067,2.133,3.2,3.2,5.333,4.267V225.906z M288.722,285.639c3.2,0,5.333-2.133,6.4-4.267
	c3.2-2.133,3.2-4.267,3.2-7.467c0-2.133-1.067-4.267-2.133-6.4s-4.267-3.2-7.467-4.267L288.722,285.639L288.722,285.639z"/>
<path style="fill:#4CDBC4;" d="M447.655,88.306l39.467,163.2c3.2,12.8-5.333,26.667-18.133,29.867l-360.533,87.467
	c-12.8,3.2-26.667-5.333-29.867-18.133l-39.467-163.2c-3.2-12.8,5.333-26.667,18.133-29.867l360.533-87.467
	C431.655,66.973,444.455,75.506,447.655,88.306z"/>
<path style="fill:#F2F2F2;" d="M92.455,303.773l-20.267-82.133c22.4-5.333,37.333-28.8,30.933-51.2l279.467-68.267
	c5.333,22.4,28.8,37.333,51.2,30.933l20.267,82.133c-22.4,5.333-37.333,28.8-30.933,51.2l-279.467,68.267
	C138.322,312.306,114.855,298.439,92.455,303.773z"/>
<g>
	<circle style="fill:#4CDBC4;" cx="166.055" cy="242.973" r="13.867"/>
	<circle style="fill:#4CDBC4;" cx="361.255" cy="196.039" r="13.867"/>
	<path style="fill:#4CDBC4;" d="M315.389,206.706c8.533,36.267-7.467,71.467-36.267,77.867c-4.267,1.067-7.467,1.067-11.733,1.067
		c-24.533-1.067-49.067-22.4-56.533-54.4c0-1.067-1.067-3.2-1.067-4.267c-6.4-35.2,9.6-67.2,37.333-74.667
		C275.922,146.973,306.855,170.439,315.389,206.706z"/>
</g>
<path style="fill:#FFFFFF;" d="M266.322,246.173l-5.333-23.467c-7.467,0-13.867-2.133-18.133-5.333
	c-4.267-3.2-7.467-8.533-8.533-13.867c-1.067-6.4-1.067-11.733,2.133-17.067c3.2-5.333,7.467-8.533,13.867-10.667l-1.067-5.333
	l7.467-2.133l1.067,5.333c6.4-1.067,10.667,0,14.933,2.133c4.267,2.133,7.467,6.4,9.6,11.733l-13.867,5.333
	c-2.133-4.267-5.333-6.4-8.533-7.467l5.333,21.333c9.6,0,16,2.133,20.267,5.333s6.4,7.467,8.533,13.867
	c2.133,6.4,1.067,12.8-2.133,18.133c-3.2,5.333-7.467,9.6-14.933,12.8l2.133,10.667l-7.467,2.133l-2.133-9.6
	c-6.4,1.067-12.8,0-17.067-3.2c-5.333-3.2-8.533-7.467-11.733-14.933l13.867-5.333c1.067,3.2,3.2,5.333,5.333,6.4
	C260.989,245.106,263.122,246.173,266.322,246.173z M251.389,188.573c-2.133,1.067-3.2,3.2-4.267,5.333
	c-1.067,2.133-1.067,4.267,0,6.4c0,2.133,1.067,3.2,3.2,5.333c1.067,1.067,3.2,2.133,6.4,3.2L251.389,188.573z M273.789,245.106
	c2.133-1.067,4.267-3.2,5.333-5.333s1.067-5.333,1.067-7.467c-1.067-2.133-2.133-4.267-3.2-5.333
	c-2.133-1.067-4.267-2.133-8.533-2.133L273.789,245.106z"/>
<path style="fill:#4CDBC4;" d="M376.189,12.573l76.8,149.333c6.4,11.733,1.067,26.667-10.667,33.067l-329.6,170.667
	c-11.733,6.4-26.667,1.067-33.067-10.667l-76.8-149.333c-6.4-11.733-1.067-26.667,10.667-33.067l329.6-169.6
	C355.922-3.427,370.855,0.839,376.189,12.573z"/>
<path style="fill:#F2F2F2;" d="M81.789,306.973l-38.4-74.667c21.333-10.667,28.8-36.267,18.133-57.6l256-132.267
	c10.667,21.333,36.267,28.8,57.6,18.133l38.4,74.667c-21.333,10.667-28.8,36.267-18.133,57.6l-256,131.2
	C128.722,304.84,103.122,296.306,81.789,306.973z"/>
<g>
	<circle style="fill:#4CDBC4;" cx="139.389" cy="230.173" r="13.867"/>
	<circle style="fill:#4CDBC4;" cx="317.522" cy="138.439" r="13.867"/>
	<path style="fill:#4CDBC4;" d="M275.922,159.773c17.067,33.067,9.6,71.467-16,84.267c-3.2,2.133-7.467,3.2-10.667,4.267
		c-24.533,5.333-52.267-10.667-67.2-39.467c-1.067-1.067-1.067-2.133-2.133-3.2c-14.933-32-6.4-68.267,18.133-81.067
		C223.655,110.706,258.855,126.706,275.922,159.773z"/>
</g>
<path style="fill:#FFFFFF;" d="M237.522,209.906l-10.667-21.333c-7.467,1.067-13.867,1.067-19.2-1.067
	c-5.333-2.133-8.533-6.4-11.733-11.733c-3.2-5.333-3.2-10.667-2.133-17.067c1.067-5.333,5.333-9.6,10.667-13.867l-2.133-5.333
	l7.467-4.267l2.133,5.333c5.333-2.133,10.667-2.133,16-1.067c4.267,1.067,8.533,4.267,11.733,8.533l-11.733,8.533
	c-3.2-3.2-6.4-5.333-10.667-5.333l10.667,19.2c9.6-2.133,16-2.133,21.333,0c4.267,2.133,8.533,5.333,11.733,10.667
	c3.2,6.4,4.267,11.733,2.133,18.133c-1.067,6.4-5.333,11.733-11.733,16l5.333,9.6l-7.467,4.267l-4.267-9.6
	c-6.4,2.133-11.733,2.133-17.067,1.067c-5.333-2.133-10.667-5.333-14.933-11.733l10.667-6.4c2.133,2.133,4.267,4.267,6.4,5.333
	S234.322,209.906,237.522,209.906z M209.789,156.573c-2.133,2.133-2.133,3.2-3.2,6.4c0,2.133,0,4.267,1.067,6.4
	c1.067,2.133,2.133,3.2,4.267,4.267c2.133,1.067,4.267,1.067,6.4,1.067L209.789,156.573z M244.989,206.706
	c2.133-2.133,3.2-4.267,4.267-6.4c1.067-3.2,0-5.333-1.067-7.467c-1.067-2.133-3.2-4.267-5.333-4.267
	c-2.133-1.067-5.333-1.067-8.533,0L244.989,206.706z"/>
<path style="fill:#F8B64C;" d="M510.589,460.573c0,28.8-50.133,51.2-112,51.2c-60.8,0-110.933-23.467-110.933-51.2v-34.133h224
	v34.133H510.589z"/>
<ellipse style="fill:#FFD15C;" cx="399.655" cy="425.373" rx="112" ry="51.2"/>
<ellipse style="fill:#F8B64C;" cx="399.655" cy="425.373" rx="91.733" ry="42.667"/>
<path style="fill:#FFD15C;" d="M393.255,443.506v-16c-10.667-1.067-19.2-3.2-24.533-6.4c-5.333-3.2-7.467-6.4-7.467-10.667
	c0-4.267,3.2-7.467,8.533-10.667c5.333-3.2,13.867-4.267,23.467-5.333v-4.267h11.733v4.267c8.533,0,16,2.133,21.333,4.267
	c5.333,2.133,8.533,5.333,9.6,9.6l-21.333,1.067c-1.067-3.2-4.267-5.333-9.6-6.4v14.933c13.867,2.133,22.4,4.267,27.733,6.4
	c5.333,2.133,7.467,6.4,7.467,10.667s-3.2,8.533-9.6,11.733c-6.4,3.2-14.933,5.333-25.6,6.4v7.467h-11.733v-7.467
	c-9.6-1.067-17.067-2.133-23.467-5.333c-6.4-3.2-9.6-6.4-11.733-11.733l22.4-1.067c1.067,2.133,2.133,4.267,5.333,5.333
	C387.922,442.44,390.055,443.506,393.255,443.506z M393.255,402.973c-3.2,0-6.4,1.067-7.467,2.133c-2.133,1.067-3.2,2.133-3.2,4.267
	c0,1.067,1.067,2.133,3.2,4.267c2.133,1.067,4.267,2.133,8.533,3.2v-13.867H393.255z M406.055,444.573
	c4.267,0,7.467-1.067,10.667-3.2c2.133-1.067,4.267-3.2,4.267-5.333c0-2.133-1.067-3.2-3.2-4.267
	c-2.133-1.067-5.333-2.133-10.667-3.2v16H406.055z"/>
<path style="fill:#F8B64C;" d="M510.589,416.839c0,28.8-50.133,51.2-112,51.2c-60.8,1.067-110.933-22.4-110.933-51.2v-34.133h224
	v34.133H510.589z"/>
<ellipse style="fill:#FFD15C;" cx="399.655" cy="382.706" rx="112" ry="51.2"/>
<ellipse style="fill:#F8B64C;" cx="399.655" cy="382.706" rx="91.733" ry="42.667"/>
<path style="fill:#FFD15C;" d="M393.255,400.839v-16c-10.667-1.067-19.2-3.2-24.533-6.4c-5.333-3.2-7.467-6.4-7.467-10.667
	s3.2-7.467,8.533-10.667c5.333-3.2,13.867-4.267,23.467-5.333v-4.267h11.733v4.267c8.533,0,16,2.133,21.333,4.267
	c5.333,2.133,8.533,5.333,9.6,9.6l-21.333,1.067c-1.067-3.2-4.267-5.333-9.6-6.4v14.933c13.867,2.133,22.4,4.267,27.733,6.4
	c5.333,2.133,7.467,6.4,7.467,10.667c0,4.267-3.2,8.533-9.6,11.733c-6.4,3.2-14.933,5.333-25.6,6.4v7.467h-11.733v-7.467
	c-9.6-1.067-17.067-2.133-23.467-5.333c-6.4-3.2-9.6-6.4-11.733-11.733l22.4-1.067c1.067,2.133,2.133,4.267,5.333,5.333
	C387.922,398.706,390.055,399.773,393.255,400.839z M393.255,360.306c-3.2,0-6.4,1.067-7.467,2.133
	c-2.133,1.067-3.2,2.133-3.2,4.267c0,1.067,1.067,2.133,3.2,4.267c2.133,1.067,4.267,2.133,8.533,3.2v-13.867H393.255z
	 M406.055,400.839c4.267,0,7.467-1.067,10.667-3.2c2.133-1.067,4.267-3.2,4.267-5.333s-1.067-3.2-3.2-4.267
	c-2.133-1.067-5.333-2.133-10.667-3.2v16H406.055z"/>
<path style="fill:#F8B64C;" d="M510.589,374.173c0,28.8-50.133,51.2-112,51.2s-112-23.467-112-51.2v-34.133h224V374.173z"/>
<ellipse style="fill:#FFD15C;" cx="399.655" cy="338.973" rx="112" ry="51.2"/>
<ellipse style="fill:#F8B64C;" cx="399.655" cy="338.973" rx="91.733" ry="42.667"/>
<path style="fill:#FFD15C;" d="M393.255,358.173v-17.067c-10.667-1.067-19.2-3.2-24.533-6.4c-5.333-3.2-7.467-6.4-7.467-10.667
	s3.2-7.467,8.533-10.667c5.333-3.2,13.867-4.267,23.467-5.333v-4.267h11.733v5.333c8.533,0,16,2.133,21.333,4.267
	c5.333,2.133,8.533,5.333,9.6,9.6l-21.333,1.067c-1.067-3.2-4.267-5.333-9.6-6.4v14.933c13.867,2.133,22.4,4.267,27.733,6.4
	c5.333,2.133,7.467,6.4,7.467,10.667c0,4.267-3.2,8.533-9.6,11.733c-6.4,3.2-14.933,5.333-25.6,6.4v7.467h-11.733v-7.467
	c-9.6-1.067-17.067-2.133-23.467-5.333c-6.4-3.2-9.6-6.4-11.733-11.733l22.4-1.067c1.067,2.133,2.133,4.267,5.333,5.333
	C387.922,356.04,390.055,357.106,393.255,358.173z M393.255,316.573c-3.2,0-6.4,1.067-7.467,2.133c-2.133,1.067-3.2,2.133-3.2,4.267
	c0,1.067,1.067,2.133,3.2,4.267c2.133,1.067,4.267,2.133,8.533,3.2v-13.867H393.255z M406.055,358.173
	c4.267,0,7.467-1.067,10.667-3.2c2.133-1.067,4.267-3.2,4.267-5.333c0-2.133-1.067-3.2-3.2-4.267
	c-2.133-1.067-5.333-2.133-10.667-3.2v16H406.055z"/>
<path style="fill:#F8B64C;" d="M510.589,330.439c0,28.8-50.133,51.2-112,51.2c-60.8,1.067-110.933-22.4-110.933-51.2v-34.133h224
	v34.133H510.589z"/>
<ellipse style="fill:#FFD15C;" cx="399.655" cy="296.306" rx="112" ry="51.2"/>
<ellipse style="fill:#F8B64C;" cx="399.655" cy="296.306" rx="91.733" ry="42.667"/>
<path style="fill:#FFD15C;" d="M393.255,314.439v-16c-10.667-1.067-19.2-3.2-24.533-6.4c-5.333-3.2-7.467-6.4-7.467-10.667
	s3.2-7.467,8.533-10.667c5.333-3.2,13.867-4.267,23.467-5.333v-4.267h11.733v4.267c8.533,0,16,2.133,21.333,4.267
	c5.333,2.133,8.533,5.333,9.6,9.6l-21.333,1.067c-1.067-3.2-4.267-5.333-9.6-6.4v14.933c13.867,2.133,22.4,4.267,27.733,6.4
	c5.333,2.133,7.467,6.4,7.467,10.667s-3.2,8.533-9.6,11.733c-6.4,3.2-14.933,5.333-25.6,6.4v6.4h-11.733v-7.467
	c-9.6-1.067-17.067-2.133-23.467-5.333c-6.4-3.2-9.6-6.4-11.733-11.733l22.4-1.067c1.067,2.133,2.133,4.267,5.333,5.333
	C387.922,312.306,390.055,313.373,393.255,314.439z M393.255,273.906c-3.2,0-6.4,1.067-7.467,2.133
	c-2.133,1.067-3.2,2.133-3.2,4.267c0,1.067,1.067,2.133,3.2,4.267c2.133,1.067,4.267,2.133,8.533,3.2v-13.867H393.255z
	 M406.055,315.506c4.267,0,7.467-1.067,10.667-3.2c2.133-1.067,4.267-3.2,4.267-5.333s-1.067-3.2-3.2-4.267
	c-2.133-1.067-5.333-2.133-10.667-3.2v16H406.055z"/>
<path style="fill:#F8B64C;" d="M510.589,287.773c0,28.8-50.133,51.2-112,51.2c-60.8,0-110.933-22.4-110.933-51.2v-34.133h224v34.133
	H510.589z"/>
<ellipse style="fill:#FFD15C;" cx="399.655" cy="253.639" rx="112" ry="51.2"/>
<ellipse style="fill:#F8B64C;" cx="399.655" cy="253.639" rx="91.733" ry="42.667"/>
<path style="fill:#FFD15C;" d="M393.255,271.773v-16c-10.667-1.067-19.2-3.2-24.533-6.4c-5.333-3.2-7.467-6.4-7.467-10.667
	s3.2-7.467,8.533-10.667c5.333-3.2,13.867-4.267,23.467-5.333v-4.267h11.733v4.267c8.533,0,16,2.133,21.333,4.267
	c5.333,2.133,8.533,5.333,9.6,9.6l-21.333,1.067c-1.067-3.2-4.267-5.333-9.6-6.4v14.933c13.867,2.133,22.4,4.267,27.733,6.4
	s7.467,6.4,7.467,10.667s-3.2,8.533-9.6,11.733c-6.4,3.2-14.933,5.333-25.6,6.4v6.4h-11.733v-7.467
	c-9.6-1.067-17.067-2.133-23.467-5.333c-6.4-3.2-9.6-6.4-11.733-11.733l22.4-1.067c1.067,2.133,2.133,4.267,5.333,5.333
	C387.922,269.639,390.055,270.706,393.255,271.773z M393.255,231.24c-3.2,0-6.4,1.067-7.467,2.133c-2.133,1.067-3.2,2.133-3.2,4.267
	c0,1.067,1.067,2.133,3.2,4.267c2.133,1.067,4.267,2.133,8.533,3.2V231.24H393.255z M406.055,271.773
	c4.267,0,7.467-1.067,10.667-3.2c2.133-1.067,4.267-3.2,4.267-5.333s-1.067-3.2-3.2-4.267c-2.133-1.067-5.333-2.133-10.667-3.2v16
	H406.055z"/>
<g>
</g>
<g>
</g>
<g>
</g>
<g>
</g>
<g>
</g>
<g>
</g>
<g>
</g>
<g>
</g>
<g>
</g>
<g>
</g>
<g>
</g>
<g>
</g>
<g>
</g>
<g>
</g>
<g>
</g>
</svg>
