<?xml version="1.0" encoding="iso-8859-1"?>
<!-- Generator: Adobe Illustrator 19.0.0, SVG Export Plug-In . SVG Version: 6.00 Build 0)  -->
<svg version="1.1" id="Capa_1" xmlns="http://www.w3.org/2000/svg" xmlns:xlink="http://www.w3.org/1999/xlink" x="0px" y="0px"
	 viewBox="0 0 512 512" style="enable-background:new 0 0 512 512;" xml:space="preserve">
<g>
	<g>
		<path d="M255.989,0c-83.52,0-128,68.139-128,117.333c0,27.883,16.619,74.667,128,74.667s128-46.784,128-74.667
			C383.99,60.907,335.051,0,255.989,0z M255.989,170.667c-39.829,0-106.667-6.933-106.667-53.333c0-40.256,37.056-96,106.667-96
			c72.768,0,106.667,57.28,106.667,96C362.656,163.733,295.819,170.667,255.989,170.667z"/>
	</g>
</g>
<g>
	<g>
		<path d="M396.661,201.259c-2.795-2.261-6.507-2.987-9.856-1.941c-28.779,8.768-77.696,14.016-130.816,14.016
			c-53.205,0-102.144-5.248-130.88-14.037c-5.717-1.792-11.605,1.451-13.333,7.061c-0.533,1.835-0.597,3.712-0.213,5.44
			C128.8,391.424,186.784,512,255.989,512c69.397,0,127.488-121.152,144.555-301.483
			C400.864,206.976,399.414,203.499,396.661,201.259z M255.989,490.667c-54.208,0-104.576-111.381-121.749-266.965
			c30.976,6.955,74.944,10.965,121.749,10.965c46.784,0,90.752-4.011,121.749-10.965
			C360.566,379.307,310.219,490.667,255.989,490.667z"/>
	</g>
</g>
<g>
	<g>
		<path d="M126.838,200l-0.085-0.043c-5.248-2.624-11.627-0.469-14.272,4.779c-2.624,5.269-0.448,11.712,4.821,14.336
			c1.557,0.768,3.179,1.131,4.779,1.131c3.883,0,7.659-2.155,9.536-5.888C134.24,209.045,132.107,202.645,126.838,200z"/>
	</g>
</g>
<g>
	<g>
		<circle cx="181.323" cy="266.667" r="10.667"/>
	</g>
</g>
<g>
	<g>
		<circle cx="223.989" cy="266.667" r="10.667"/>
	</g>
</g>
<g>
	<g>
		<circle cx="266.656" cy="266.667" r="10.667"/>
	</g>
</g>
<g>
	<g>
		<path d="M231.648,109.888c-9.387-9.621-19.627-14.165-30.485-13.803c-16.427,0.725-26.965,13.099-28.117,14.507
			c-3.712,4.565-3.029,11.285,1.557,15.019c1.963,1.6,4.352,2.389,6.72,2.389c3.093,0,6.165-1.344,8.277-3.925
			c0.043-0.064,5.589-6.379,12.501-6.677c4.651-0.128,9.28,2.283,14.251,7.36c4.096,4.245,10.859,4.309,15.083,0.213
			C235.659,120.875,235.744,114.112,231.648,109.888z"/>
	</g>
</g>
<g>
	<g>
		<path d="M338.336,109.909c-9.301-9.6-19.541-14.293-30.293-13.803c-16.448,0.661-27.093,13.035-28.267,14.443
			c-3.733,4.523-3.093,11.136,1.387,14.912c4.544,3.776,11.179,3.179,14.997-1.259c0.064-0.064,5.696-6.549,12.843-6.763
			c4.8,0.32,9.152,2.325,13.995,7.317c2.091,2.155,4.864,3.243,7.659,3.243c2.667,0,5.355-1.003,7.424-3.008
			C342.326,120.896,342.432,114.133,338.336,109.909z"/>
	</g>
</g>
<g>
	<g>
		<path d="M165.216,474.091c-33.472-50.24-58.773-131.968-71.232-230.101c-0.768-5.845-6.165-9.984-11.947-9.237
			c-5.845,0.747-9.984,6.08-9.237,11.925c12.864,101.333,39.381,186.304,74.645,239.232c2.069,3.093,5.44,4.757,8.875,4.757
			c2.048,0,4.117-0.576,5.931-1.792C167.158,485.632,168.48,478.997,165.216,474.091z"/>
	</g>
</g>
<g>
	<g>
		<path d="M429.963,234.752c-5.76-0.747-11.2,3.392-11.947,9.237c-12.459,98.133-37.76,179.861-71.232,230.101
			c-3.264,4.907-1.92,11.52,2.965,14.784c1.813,1.216,3.861,1.792,5.909,1.792c3.435,0,6.805-1.664,8.896-4.757
			c35.264-52.928,61.76-137.899,74.645-239.232C439.947,240.832,435.787,235.499,429.963,234.752z"/>
	</g>
</g>
<g>
</g>
<g>
</g>
<g>
</g>
<g>
</g>
<g>
</g>
<g>
</g>
<g>
</g>
<g>
</g>
<g>
</g>
<g>
</g>
<g>
</g>
<g>
</g>
<g>
</g>
<g>
</g>
<g>
</g>
</svg>
