<svg id="Capa_1" enable-background="new 0 0 510 510" height="512" viewBox="0 0 510 510" width="512" xmlns="http://www.w3.org/2000/svg" xmlns:xlink="http://www.w3.org/1999/xlink"><linearGradient id="lg1"><stop offset="0" stop-color="#8a7889"/><stop offset="1" stop-color="#6e566e"/></linearGradient><linearGradient id="SVGID_1_" gradientTransform="matrix(-1 0 0 -1 510 510)" gradientUnits="userSpaceOnUse" x1="137.297" x2="421.813" xlink:href="#lg1" y1="137.297" y2="421.813"/><linearGradient id="SVGID_2_" gradientUnits="userSpaceOnUse" x1="141.564" x2="415.767" xlink:href="#lg1" y1="141.564" y2="415.767"/><linearGradient id="SVGID_3_" gradientTransform="matrix(-1 0 0 -1 510 177)" gradientUnits="userSpaceOnUse" x1="225.532" x2="296.764" xlink:href="#lg1" y1="51.143" y2="122.375"/><linearGradient id="lg2"><stop offset="0" stop-color="#6e566e" stop-opacity="0"/><stop offset=".4171" stop-color="#684e67" stop-opacity=".417"/><stop offset="1" stop-color="#593b56"/></linearGradient><linearGradient id="SVGID_4_" gradientUnits="userSpaceOnUse" x1="359.904" x2="225.737" xlink:href="#lg2" y1="201.293" y2="67.126"/><linearGradient id="SVGID_5_" gradientUnits="userSpaceOnUse" x1="234.118" x2="284.595" xlink:href="#lg1" y1="75.506" y2="125.984"/><linearGradient id="SVGID_6_" gradientTransform="matrix(-1 0 0 -1 510 645)" gradientUnits="userSpaceOnUse" x1="196.268" x2="338.237" xlink:href="#lg1" y1="263.507" y2="405.477"/><linearGradient id="SVGID_7_" gradientUnits="userSpaceOnUse" x1="209.365" x2="319.676" y1="277.126" y2="387.436"><stop offset="0" stop-color="#ffd945"/><stop offset=".3043" stop-color="#ffcd3e"/><stop offset=".8558" stop-color="#ffad2b"/><stop offset="1" stop-color="#ffa325"/></linearGradient><linearGradient id="SVGID_8_" gradientUnits="userSpaceOnUse" x1="396.126" x2="253.874" xlink:href="#lg2" y1="463.887" y2="321.635"/><linearGradient id="SVGID_9_" gradientUnits="userSpaceOnUse" x1="218.369" x2="306.915" xlink:href="#lg1" y1="286.13" y2="374.675"/><g><path d="m56.836 453.218c3.243 18.257 16.966 32.86 35.025 37.204 108.511 26.103 217.767 26.103 326.278 0 18.059-4.344 31.782-18.948 35.025-37.204 23.411-131.787 23.411-264.65 0-396.437-3.243-18.257-16.966-32.86-35.025-37.204-108.511-26.103-217.767-26.103-326.278 0-18.059 4.344-31.782 18.948-35.025 37.204-23.411 131.788-23.411 264.651 0 396.437z" fill="url(#SVGID_1_)"/><path d="m445.787 63.805c-3.122-17.61-16.335-31.696-33.721-35.886-104.471-25.179-209.66-25.178-314.131 0-17.387 4.19-30.599 18.276-33.721 35.886-22.539 127.117-22.539 255.273 0 382.391 3.122 17.61 16.335 31.696 33.721 35.886 104.471 25.178 209.66 25.178 314.131 0 17.386-4.19 30.599-18.276 33.721-35.886 22.539-127.118 22.539-255.274 0-382.391z" fill="url(#SVGID_2_)"/><circle cx="255" cy="96.389" fill="url(#SVGID_3_)" r="72.278"/><path d="m255 45.17c-28.287 0-51.219 22.931-51.219 51.219 0 14.782 6.264 28.098 16.28 37.447l236.477 236.477c4.928-46.243 6.902-92.568 5.896-138.876l-169.987-169.987c-9.349-10.016-22.665-16.28-37.447-16.28z" fill="url(#SVGID_4_)"/><circle cx="255" cy="96.389" fill="url(#SVGID_5_)" r="51.219"/><circle cx="255" cy="322.761" fill="url(#SVGID_6_)" r="144.054"/><circle cx="255" cy="322.761" fill="url(#SVGID_7_)" r="111.931"/><path d="m320.688 261.472c-16.399-17.569-39.758-28.557-65.688-28.557-49.62 0-89.846 40.225-89.846 89.846 0 25.929 10.989 49.289 28.558 65.688l110.653 110.653c35.946-2.712 71.865-8.384 107.7-17.021 17.386-4.19 30.599-18.276 33.721-35.886 3.054-17.222 5.679-34.464 7.905-51.719z" fill="url(#SVGID_8_)"/><circle cx="255" cy="322.761" fill="url(#SVGID_9_)" r="89.846"/></g></svg>