<svg id="Layer_1" enable-background="new 0 0 512 512" height="512" viewBox="0 0 512 512" width="512" xmlns="http://www.w3.org/2000/svg"><g><g><g><path d="m362.038 0h-106.038l-10.667 256 10.667 256h106.038l149.962-149.961v-212.078z" fill="#efe2dd"/><path d="m149.962 0-149.962 149.961v212.078l149.962 149.961h106.038v-512z" fill="#f7f0eb"/></g><g><path d="m349.611 30h-93.611l-10.667 226 10.667 226h93.611l132.389-132.388v-187.224z" fill="#c6001c"/><path d="m162.389 30-132.389 132.388v187.224l132.389 132.388h93.611v-452z" fill="#ff1f3d"/></g></g><g><g><path d="m96.297 318.329c-16.839 0-32.662-6.803-43.412-18.666l22.23-20.145c4.999 5.517 12.918 8.811 21.182 8.811 7.838 0 12.289-4.621 12.83-7.743.239-1.38.874-5.045-7.189-8.075-5.223-1.963-9.082-2.908-12.814-3.822-5.714-1.399-11.623-2.845-18.403-7.253-12.024-7.814-16.086-21.063-15.878-30.856.313-14.799 10.474-28.457 25.283-33.983 25.032-9.342 45.161 5.61 57.188 14.543l-17.887 24.084c-17.698-13.143-23.103-12.651-28.813-10.52-4.142 1.546-5.742 4.815-5.777 6.513-.037 1.729.732 4.091 2.232 5.065 2.391 1.554 4.229 2.053 9.189 3.268 4.157 1.018 9.332 2.285 16.232 4.878 19.021 7.147 29.304 23.35 26.197 41.279-3.274 18.902-21.102 32.622-42.39 32.622z" fill="#fffbf5"/></g><path d="m231.512 194.661h-81.183v30h25.488v92.678h30v-92.678h25.695z" fill="#fffbf5"/><path d="m419.036 194.661h-40.806v122.679h30v-40.336c4.151-.019 8.233-.035 10.806-.035 22.975 0 41.666-18.461 41.666-41.154s-18.691-41.154-41.666-41.154zm0 52.308c-2.597 0-6.612.015-10.707.034-.02-4.304-.044-17.828-.056-22.342h10.763c6.323 0 11.666 5.108 11.666 11.154s-5.343 11.154-11.666 11.154z" fill="#f7f0eb"/><g><path d="m298.548 317.339c-33.823 0-61.34-27.517-61.34-61.339s27.517-61.339 61.34-61.339c33.822 0 61.339 27.517 61.339 61.339s-27.517 61.339-61.339 61.339zm0-92.678c-17.281 0-31.34 14.059-31.34 31.339s14.059 31.339 31.34 31.339c17.28 0 31.339-14.059 31.339-31.339s-14.059-31.339-31.339-31.339z" fill="#f7f0eb"/></g></g></g></svg>