<svg id="_x31_px" enable-background="new 0 0 24 24" height="512" viewBox="0 0 24 24" width="512" xmlns="http://www.w3.org/2000/svg"><path d="m9 10c-2.757 0-5-2.243-5-5s2.243-5 5-5 5 2.243 5 5-2.243 5-5 5zm0-9c-2.206 0-4 1.794-4 4s1.794 4 4 4 4-1.794 4-4-1.794-4-4-4z"/><path d="m9.5 21h-9c-.276 0-.5-.224-.5-.5v-4c0-2.481 2.019-4.5 4.5-4.5h9c.276 0 .5.224.5.5s-.224.5-.5.5h-9c-1.93 0-3.5 1.57-3.5 3.5v3.5h8.5c.276 0 .5.224.5.5s-.224.5-.5.5z"/><path d="m17 24c-1.431 0-2.861-.424-4.282-1.271-.444-.264-.718-.757-.718-1.286v-2.943c0-.276.224-.5.5-.5s.5.224.5.5v2.943c0 .176.09.344.229.427 2.538 1.513 5.005 1.513 7.541 0 .14-.083.23-.251.23-.427v-2.943c0-.276.224-.5.5-.5s.5.224.5.5v2.943c0 .529-.274 1.022-.718 1.286-1.421.847-2.851 1.271-4.282 1.271z"/><path d="m17 21c-.071 0-.143-.015-.21-.046l-6.5-3c-.177-.082-.29-.259-.29-.454s.113-.372.29-.454l6.5-3c.135-.062.285-.062.42 0l6.5 3c.177.082.29.259.29.454s-.113.372-.29.454l-6.5 3c-.067.031-.139.046-.21.046zm-5.307-3.5 5.307 2.449 5.307-2.449-5.307-2.449z"/></svg>