<svg id="_x31_px" enable-background="new 0 0 24 24" height="512" viewBox="0 0 24 24" width="512" xmlns="http://www.w3.org/2000/svg"><path d="m5 6c-1.654 0-3-1.346-3-3s1.346-3 3-3 3 1.346 3 3-1.346 3-3 3zm0-5c-1.103 0-2 .897-2 2s.897 2 2 2 2-.897 2-2-.897-2-2-2z"/><path d="m6.5 24h-3c-.827 0-1.5-.673-1.5-1.5v-5.382c0-.191-.106-.362-.276-.447l-.895-.447c-.511-.256-.829-.77-.829-1.342v-4.382c0-1.93 1.57-3.5 3.5-3.5h3c1.93 0 3.5 1.57 3.5 3.5v4.382c0 .572-.318 1.086-.829 1.342l-.895.447c-.17.085-.276.256-.276.447v5.382c0 .827-.673 1.5-1.5 1.5zm-3-16c-1.378 0-2.5 1.122-2.5 2.5v4.382c0 .191.106.362.276.447l.895.447c.511.256.829.77.829 1.342v5.382c0 .276.224.5.5.5h3c.276 0 .5-.224.5-.5v-5.382c0-.572.318-1.086.829-1.342l.895-.447c.17-.085.276-.256.276-.447v-4.382c0-1.378-1.122-2.5-2.5-2.5z"/><path d="m21.5 16h-9c-.276 0-.5-.224-.5-.5s.224-.5.5-.5h9c.827 0 1.5-.673 1.5-1.5v-9c0-.827-.673-1.5-1.5-1.5h-11c-.276 0-.5-.224-.5-.5s.224-.5.5-.5h11c1.378 0 2.5 1.122 2.5 2.5v9c0 1.378-1.122 2.5-2.5 2.5z"/><path d="m19.5 12h-7c-.202 0-.385-.122-.462-.309-.078-.187-.035-.402.108-.545l5-5c.195-.195.512-.195.707 0s.195.512 0 .707l-4.146 4.147h5.793c.276 0 .5.224.5.5s-.224.5-.5.5z"/><path d="m16.229 12c-.086 0-.173-.022-.252-.068-.238-.14-.318-.446-.179-.685.13-.222.202-.487.202-.747 0-.587-.348-1.122-.885-1.364-.252-.113-.364-.409-.251-.661.114-.251.408-.363.661-.251.896.403 1.475 1.296 1.475 2.276 0 .441-.117.875-.338 1.253-.094.159-.261.247-.433.247z"/></svg>