<?xml version="1.0" encoding="iso-8859-1"?>
<!-- Generator: Adobe Illustrator 19.0.0, SVG Export Plug-In . SVG Version: 6.00 Build 0)  -->
<svg version="1.1" id="Capa_1" xmlns="http://www.w3.org/2000/svg" xmlns:xlink="http://www.w3.org/1999/xlink" x="0px"
     y="0px"
     viewBox="0 0 490.667 490.667" style="enable-background:new 0 0 490.667 490.667;" xml:space="preserve">
<path fill="currentColor" d="M245.333,0C109.839,0,0,109.839,0,245.333s109.839,245.333,245.333,245.333
	s245.333-109.839,245.333-245.333C490.514,109.903,380.764,0.153,245.333,0z"/>
    <path fill="white" d="M382.635,154.752c-1.895-3.353-5.45-5.424-9.301-5.419h-256c-5.891-0.001-10.668,4.773-10.669,10.664
	c0,1.932,0.524,3.828,1.517,5.485l128,213.333c3.036,5.049,9.589,6.68,14.638,3.645c1.495-0.899,2.746-2.15,3.645-3.645l128-213.333
	C384.447,162.197,384.512,158.099,382.635,154.752z"/>
</svg>
