<svg id="_x31_px" enable-background="new 0 0 24 24" height="512" viewBox="0 0 24 24" width="512"
     xmlns="http://www.w3.org/2000/svg">
    <path fill="currentColor" d="m18 17h-2.5c-.276 0-.5-.224-.5-.5s.224-.5.5-.5h2.5c2.757 0 5-2.243 5-5 0-2.647-2.063-4.835-4.697-4.981-.185-.01-.348-.121-.426-.288-1.058-2.266-3.364-3.731-5.877-3.731-3.215 0-5.977 2.395-6.425 5.57-.035.246-.246.43-.495.43-2.286 0-4.08 1.794-4.08 4s1.794 4 4 4h3.5c.276 0 .5.224.5.5s-.224.5-.5.5h-3.5c-2.757 0-5-2.243-5-5 0-2.642 2.059-4.811 4.656-4.988.692-3.456 3.777-6.012 7.344-6.012 2.801 0 5.381 1.578 6.653 4.044 3.022.317 5.347 2.878 5.347 5.956 0 3.309-2.691 6-6 6z"/>
    <path fill="currentColor" d="m12 20c-.276 0-.5-.224-.5-.5v-7.75c0-.276.224-.5.5-.5s.5.224.5.5v7.75c0 .276-.224.5-.5.5z"/>
    <path fill="currentColor" d="m14.5 14.5c-.128 0-.256-.049-.354-.146l-2.146-2.147-2.146 2.146c-.195.195-.512.195-.707 0s-.195-.512 0-.707l2.5-2.5c.195-.195.512-.195.707 0l2.5 2.5c.195.195.195.512 0 .707-.098.098-.226.147-.354.147z"/>
    <path fill="currentColor" d="m15.5 23h-7c-.827 0-1.5-.673-1.5-1.5v-2c0-.276.224-.5.5-.5s.5.224.5.5v2c0 .276.225.5.5.5h7c.275 0 .5-.224.5-.5v-2c0-.276.224-.5.5-.5s.5.224.5.5v2c0 .827-.673 1.5-1.5 1.5z"/>
</svg>