<svg id="Capa_1" enable-background="new 0 0 510 510" height="512" viewBox="0 0 510 510" width="512" xmlns="http://www.w3.org/2000/svg" xmlns:xlink="http://www.w3.org/1999/xlink"><linearGradient id="lg1"><stop offset="0" stop-color="#8a7889"/><stop offset="1" stop-color="#6e566e"/></linearGradient><linearGradient id="SVGID_1_" gradientUnits="userSpaceOnUse" x1="434.096" x2="434.096" xlink:href="#lg1" y1="249.302" y2="333.537"/><linearGradient id="lg2"><stop offset="0" stop-color="#f8f6fb"/><stop offset="1" stop-color="#efdcfb"/></linearGradient><linearGradient id="SVGID_2_" gradientUnits="userSpaceOnUse" x1="494.801" x2="494.801" xlink:href="#lg2" y1="246.898" y2="334.72"/><linearGradient id="lg3"><stop offset="0" stop-color="#6e566e" stop-opacity="0"/><stop offset=".2944" stop-color="#674d66" stop-opacity=".294"/><stop offset="1" stop-color="#593b56"/></linearGradient><linearGradient id="SVGID_3_" gradientUnits="userSpaceOnUse" x1="473.434" x2="385.805" xlink:href="#lg3" y1="317.584" y2="317.584"/><linearGradient id="SVGID_4_" gradientUnits="userSpaceOnUse" x1="30.684" x2="57.248" xlink:href="#lg1" y1="305.985" y2="305.985"/><linearGradient id="SVGID_5_" gradientUnits="userSpaceOnUse" x1="8.656" x2="35.221" xlink:href="#lg1" y1="305.985" y2="305.985"/><linearGradient id="SVGID_6_" gradientTransform="matrix(0 1 -1 0 -1499.166 2228.166)" gradientUnits="userSpaceOnUse" x1="-1796.625" x2="-1770.06" xlink:href="#lg1" y1="-1719.726" y2="-1719.726"/><linearGradient id="SVGID_7_" gradientTransform="matrix(0 1 -1 0 -1499.166 2228.166)" gradientUnits="userSpaceOnUse" x1="-1812.705" x2="-1786.14" xlink:href="#lg1" y1="-1719.726" y2="-1719.726"/><linearGradient id="SVGID_8_" gradientUnits="userSpaceOnUse" x1="59.319" x2="381.8" xlink:href="#lg1" y1="305.985" y2="305.985"/><linearGradient id="SVGID_9_" gradientTransform="matrix(-1 0 0 -1 -3800 510)" gradientUnits="userSpaceOnUse" x1="-4048.087" x2="-3894.122" xlink:href="#lg1" y1="241.601" y2="241.601"/><linearGradient id="SVGID_10_" gradientUnits="userSpaceOnUse" x1="150.698" x2="155.984" xlink:href="#lg2" y1="338.506" y2="380.138"/><linearGradient id="SVGID_11_" gradientUnits="userSpaceOnUse" x1="150.698" x2="155.984" xlink:href="#lg2" y1="374.849" y2="416.481"/><linearGradient id="SVGID_12_" gradientUnits="userSpaceOnUse" x1="278.712" x2="325.012" xlink:href="#lg1" y1="346.625" y2="392.925"/><linearGradient id="SVGID_13_" gradientUnits="userSpaceOnUse" x1="311.66" x2="152.006" xlink:href="#lg3" y1="320.615" y2="160.961"/><linearGradient id="SVGID_14_" gradientUnits="userSpaceOnUse" x1="443.147" x2="241.353" xlink:href="#lg3" y1="346.404" y2="144.61"/><linearGradient id="lg4"><stop offset="0" stop-color="#9b62cd"/><stop offset=".3003" stop-color="#985dcb"/><stop offset=".6716" stop-color="#8f4ec7"/><stop offset="1" stop-color="#833ac1"/></linearGradient><linearGradient id="SVGID_15_" gradientUnits="userSpaceOnUse" x1="65.401" x2="126.577" xlink:href="#lg4" y1="113.022" y2="174.197"/><linearGradient id="lg5"><stop offset="0" stop-color="#662d90" stop-opacity="0"/><stop offset=".3052" stop-color="#632d8c" stop-opacity=".305"/><stop offset=".5953" stop-color="#5b2d81" stop-opacity=".595"/><stop offset=".8785" stop-color="#4d2d6e" stop-opacity=".879"/><stop offset="1" stop-color="#452d63"/></linearGradient><radialGradient id="SVGID_16_" cx="111.661" cy="159.282" gradientUnits="userSpaceOnUse" r="111.193" xlink:href="#lg5"/><radialGradient id="SVGID_17_" cx="111.661" cy="159.282" gradientUnits="userSpaceOnUse" r="115.789" xlink:href="#lg5"/><radialGradient id="SVGID_18_" cx="111.661" cy="159.282" gradientUnits="userSpaceOnUse" r="102.706" xlink:href="#lg5"/><radialGradient id="SVGID_19_" cx="111.661" cy="159.282" gradientUnits="userSpaceOnUse" r="89.8" xlink:href="#lg5"/><linearGradient id="SVGID_20_" gradientUnits="userSpaceOnUse" x1="192.788" x2="-5.647" xlink:href="#lg1" y1="240.409" y2="41.974"/><linearGradient id="SVGID_21_" gradientUnits="userSpaceOnUse" x1="64.977" x2="170.215" xlink:href="#lg1" y1="112.598" y2="217.835"/><linearGradient id="SVGID_22_" gradientUnits="userSpaceOnUse" x1="133.51" x2="79.682" xlink:href="#lg3" y1="181.13" y2="127.302"/><linearGradient id="SVGID_23_" gradientUnits="userSpaceOnUse" x1="99.127" x2="127.383" xlink:href="#lg1" y1="78.553" y2="108.828"/><linearGradient id="SVGID_24_" gradientUnits="userSpaceOnUse" x1="99.126" x2="127.383" xlink:href="#lg1" y1="213.148" y2="243.423"/><linearGradient id="SVGID_25_" gradientUnits="userSpaceOnUse" x1="156.623" x2="184.883" xlink:href="#lg1" y1="110.878" y2="141.156"/><linearGradient id="SVGID_26_" gradientUnits="userSpaceOnUse" x1="41.627" x2="69.887" xlink:href="#lg1" y1="180.822" y2="211.101"/><linearGradient id="SVGID_27_" gradientUnits="userSpaceOnUse" x1="41.626" x2="69.891" xlink:href="#lg1" y1="110.877" y2="141.16"/><linearGradient id="SVGID_28_" gradientUnits="userSpaceOnUse" x1="156.621" x2="184.887" xlink:href="#lg1" y1="180.818" y2="211.102"/><linearGradient id="SVGID_29_" gradientUnits="userSpaceOnUse" x1="283.198" x2="344.373" xlink:href="#lg4" y1="113.022" y2="174.197"/><radialGradient id="SVGID_30_" cx="329.458" cy="159.282" gradientUnits="userSpaceOnUse" r="111.193" xlink:href="#lg5"/><radialGradient id="SVGID_31_" cx="329.458" cy="159.282" gradientUnits="userSpaceOnUse" r="115.789" xlink:href="#lg5"/><radialGradient id="SVGID_32_" cx="329.458" cy="159.282" gradientUnits="userSpaceOnUse" r="102.706" xlink:href="#lg5"/><radialGradient id="SVGID_33_" cx="329.458" cy="159.282" gradientUnits="userSpaceOnUse" r="89.8" xlink:href="#lg5"/><linearGradient id="SVGID_34_" gradientUnits="userSpaceOnUse" x1="410.585" x2="212.15" xlink:href="#lg1" y1="240.409" y2="41.974"/><linearGradient id="SVGID_35_" gradientUnits="userSpaceOnUse" x1="282.774" x2="388.011" xlink:href="#lg1" y1="112.598" y2="217.835"/><linearGradient id="SVGID_36_" gradientUnits="userSpaceOnUse" x1="351.306" x2="297.478" xlink:href="#lg3" y1="181.13" y2="127.302"/><linearGradient id="SVGID_37_" gradientUnits="userSpaceOnUse" x1="316.923" x2="345.18" xlink:href="#lg1" y1="78.553" y2="108.828"/><linearGradient id="SVGID_38_" gradientUnits="userSpaceOnUse" x1="316.923" x2="345.179" xlink:href="#lg1" y1="213.148" y2="243.423"/><linearGradient id="SVGID_39_" gradientUnits="userSpaceOnUse" x1="374.419" x2="402.679" xlink:href="#lg1" y1="110.878" y2="141.156"/><linearGradient id="SVGID_40_" gradientUnits="userSpaceOnUse" x1="259.424" x2="287.683" xlink:href="#lg1" y1="180.822" y2="211.101"/><linearGradient id="SVGID_41_" gradientUnits="userSpaceOnUse" x1="259.423" x2="287.687" xlink:href="#lg1" y1="110.877" y2="141.16"/><linearGradient id="SVGID_42_" gradientUnits="userSpaceOnUse" x1="374.418" x2="402.683" xlink:href="#lg1" y1="180.818" y2="211.102"/><g><g><path d="m479.618 406.662-104.426-33.273v-134.808l104.481-33.291s13.327.464 13.327 10.384v180.622c0 9.919-13.382 10.366-13.382 10.366z" fill="url(#SVGID_1_)"/><path d="m490.9 201.713-11.297 3.6v201.344l11.297 3.6c9.451 3.011 19.1-4.042 19.1-13.961v-180.622c0-9.92-9.649-16.972-19.1-13.961z" fill="url(#SVGID_2_)"/><path d="m420.295 224.209-45.103 14.371v134.808l115.708 36.868c9.451 3.011 19.1-4.042 19.1-13.961v-82.381z" fill="url(#SVGID_3_)"/></g><g><path d="m45.001 352.683c-9.124 0-16.521-7.397-16.521-16.521v-60.355c0-9.124 7.397-16.521 16.521-16.521 9.124 0 16.521 7.397 16.521 16.521v60.355c0 9.124-7.397 16.521-16.521 16.521z" fill="url(#SVGID_4_)"/><path d="m22.974 370.305c-9.124 0-16.521-7.397-16.521-16.521v-95.599c0-9.124 7.397-16.521 16.521-16.521 9.124 0 16.521 7.397 16.521 16.521v95.599c0 9.124-7.397 16.521-16.521 16.521z" fill="url(#SVGID_5_)"/></g><g><path d="m173.861 445.859c0-9.124 7.397-16.521 16.521-16.521h60.355c9.124 0 16.521 7.397 16.521 16.521 0 9.124-7.396 16.521-16.521 16.521h-60.355c-9.124-.001-16.521-7.397-16.521-16.521z" fill="url(#SVGID_6_)"/><path d="m156.239 429.779c0-9.124 7.397-16.521 16.521-16.521h95.599c9.124 0 16.521 7.397 16.521 16.521 0 9.124-7.397 16.521-16.521 16.521h-95.599c-9.124-.001-16.521-7.397-16.521-16.521z" fill="url(#SVGID_7_)"/></g><g><path d="m342.812 434.184h-244.505c-21.533 0-38.989-17.456-38.989-38.989v-178.422c0-21.533 17.456-38.989 38.989-38.989h244.505c21.533 0 38.989 17.456 38.989 38.989v178.422c-.001 21.533-17.457 38.989-38.989 38.989z" fill="url(#SVGID_8_)"/><g><path d="m112.736 207.191h116.736c10.281 0 18.615 8.334 18.615 18.615v85.186c0 10.281-8.334 18.615-18.615 18.615h-116.736c-10.281 0-18.615-8.334-18.615-18.615v-85.186c.001-10.281 8.335-18.615 18.615-18.615z" fill="url(#SVGID_9_)"/><g><path d="m198.532 368.435h-90.753c-5.839 0-10.573-4.734-10.573-10.573 0-5.839 4.734-10.573 10.573-10.573h90.753c5.839 0 10.573 4.734 10.573 10.573 0 5.839-4.734 10.573-10.573 10.573z" fill="url(#SVGID_10_)"/><path d="m198.532 404.778h-90.753c-5.839 0-10.573-4.734-10.573-10.573 0-5.839 4.734-10.573 10.573-10.573h90.753c5.839 0 10.573 4.734 10.573 10.573 0 5.839-4.734 10.573-10.573 10.573z" fill="url(#SVGID_11_)"/></g></g><path d="m327.943 404.778h-40.971c-4.927 0-8.921-3.994-8.921-8.921v-40.971c0-4.927 3.994-8.921 8.921-8.921h40.971c4.927 0 8.921 3.994 8.921 8.921v40.971c0 4.926-3.994 8.921-8.921 8.921z" fill="url(#SVGID_12_)"/></g><path d="m342.812 177.785h-244.505c-21.533 0-38.989 17.456-38.989 38.989v41.632l175.779 175.779h107.714c21.533 0 38.989-17.456 38.989-38.989v-178.423c0-21.532-17.455-38.988-38.988-38.988z" fill="url(#SVGID_13_)"/><path d="m342.812 177.785h-123.478c4.064 24.32 15.993 45.973 33.078 62.274l129.388 129.388v-152.674c0-21.532-17.455-38.988-38.988-38.988z" fill="url(#SVGID_14_)"/><g><g><g><circle cx="111.661" cy="159.282" fill="url(#SVGID_15_)" r="80.411"/><circle cx="111.661" cy="159.282" fill="url(#SVGID_16_)" r="73.657"/><circle cx="111.661" cy="159.282" fill="url(#SVGID_17_)" r="67.297"/><circle cx="111.661" cy="159.282" fill="url(#SVGID_18_)" r="59.693"/><circle cx="111.661" cy="159.282" fill="url(#SVGID_19_)" r="52.192"/></g><g><path d="m111.661 47.621c-61.667 0-111.661 49.993-111.661 111.661s49.994 111.661 111.661 111.661 111.661-49.993 111.661-111.661-49.993-111.661-111.661-111.661zm70.163 97.517c-11.503 6.997-26.497 3.346-33.494-8.158-6.993-11.503-3.341-26.497 8.162-33.494s26.501-3.346 33.494 8.158c6.997 11.503 3.341 26.497-8.162 33.494zm-70.163-28.778c-13.465 0-24.377-10.908-24.377-24.373s10.912-24.382 24.377-24.382 24.377 10.916 24.377 24.382-10.912 24.373-24.377 24.373zm-36.669 20.62c-6.997 11.503-21.991 15.155-33.494 8.158s-15.16-21.991-8.162-33.494 21.995-15.155 33.498-8.158c11.504 6.998 15.156 21.991 8.158 33.494zm-33.498 36.45c11.503-6.997 26.501-3.35 33.498 8.153 6.993 11.503 3.337 26.501-8.167 33.498-11.503 6.997-26.497 3.341-33.49-8.162-6.996-11.503-3.344-26.496 8.159-33.489zm70.167 28.773c13.465 0 24.377 10.916 24.377 24.377 0 13.465-10.912 24.377-24.377 24.377s-24.377-10.912-24.377-24.377c0-13.46 10.912-24.377 24.377-24.377zm36.673-20.62c6.993-11.503 21.991-15.151 33.494-8.153 11.503 6.993 15.155 21.986 8.162 33.49-6.997 11.503-21.991 15.16-33.494 8.162s-15.159-21.995-8.162-33.499z" fill="url(#SVGID_20_)"/><path d="m111.661 52.31c-59.075 0-106.971 47.896-106.971 106.972s47.896 106.971 106.971 106.971 106.971-47.896 106.971-106.971-47.896-106.972-106.971-106.972zm78.329 154.609c-6.997 11.503-21.991 15.16-33.494 8.162-11.503-6.997-15.16-21.995-8.162-33.498 6.993-11.503 21.991-15.151 33.494-8.153 11.503 6.993 15.155 21.986 8.162 33.489zm-78.329 44.039c-13.465 0-24.377-10.912-24.377-24.377 0-13.461 10.912-24.377 24.377-24.377s24.377 10.916 24.377 24.377c0 13.465-10.912 24.377-24.377 24.377zm-78.325-44.039c-6.997-11.503-3.345-26.497 8.158-33.49 11.503-6.997 26.501-3.35 33.498 8.153 6.993 11.503 3.337 26.501-8.167 33.498-11.502 6.999-26.496 3.343-33.489-8.161zm0-95.275c6.997-11.503 21.995-15.155 33.498-8.158s15.155 21.991 8.158 33.494-21.991 15.155-33.494 8.158-15.159-21.991-8.162-33.494zm78.325-44.038c13.465 0 24.377 10.916 24.377 24.382s-10.912 24.373-24.377 24.373-24.377-10.908-24.377-24.373 10.912-24.382 24.377-24.382zm78.325 44.038c6.997 11.503 3.341 26.497-8.162 33.494s-26.497 3.346-33.494-8.158c-6.993-11.503-3.341-26.497 8.162-33.494s26.501-3.345 33.494 8.158z" fill="url(#SVGID_21_)"/><circle cx="111.661" cy="159.282" fill="url(#SVGID_22_)" r="26.433"/></g><g><g><path d="m111.661 62.22c-16.438 0-29.763 13.32-29.763 29.763 0 16.438 13.325 29.768 29.763 29.768s29.763-13.329 29.763-29.768c0-16.443-13.325-29.763-29.763-29.763zm0 54.14c-13.465 0-24.377-10.908-24.377-24.373s10.912-24.382 24.377-24.382 24.377 10.916 24.377 24.382-10.912 24.373-24.377 24.373z" fill="url(#SVGID_23_)"/></g><g><path d="m111.661 196.813c-16.438 0-29.763 13.325-29.763 29.763 0 16.443 13.325 29.768 29.763 29.768s29.763-13.325 29.763-29.768c0-16.438-13.325-29.763-29.763-29.763zm0 54.145c-13.465 0-24.377-10.912-24.377-24.377 0-13.461 10.912-24.377 24.377-24.377s24.377 10.916 24.377 24.377c0 13.465-10.912 24.377-24.377 24.377z" fill="url(#SVGID_24_)"/></g></g><g><g><path d="m194.592 108.842c-8.543-14.043-26.851-18.505-40.899-9.962-14.043 8.543-18.509 26.851-9.966 40.899 8.543 14.047 26.856 18.501 40.899 9.958 14.048-8.544 18.51-26.848 9.966-40.895zm-12.768 36.296c-11.503 6.997-26.497 3.346-33.494-8.158-6.993-11.503-3.341-26.497 8.162-33.494s26.501-3.346 33.494 8.158c6.997 11.503 3.341 26.497-8.162 33.494z" fill="url(#SVGID_25_)"/></g><g><path d="m79.595 178.785c-8.543-14.047-26.851-18.505-40.894-9.962-14.047 8.543-18.514 26.851-9.971 40.899 8.543 14.043 26.856 18.501 40.903 9.958 14.043-8.544 18.505-26.847 9.962-40.895zm-12.769 36.297c-11.503 6.997-26.497 3.341-33.49-8.162-6.997-11.503-3.345-26.497 8.158-33.49 11.503-6.997 26.501-3.35 33.498 8.153 6.994 11.504 3.337 26.501-8.166 33.499z" fill="url(#SVGID_26_)"/></g></g><g><g><path d="m69.628 98.88c-14.047-8.543-32.351-4.081-40.894 9.962-8.543 14.047-4.085 32.351 9.962 40.894s32.355 4.09 40.899-9.958c8.543-14.047 4.081-32.355-9.967-40.898zm5.364 38.1c-6.997 11.503-21.991 15.155-33.494 8.158s-15.16-21.991-8.162-33.494 21.995-15.155 33.498-8.158c11.504 6.998 15.156 21.991 8.158 33.494z" fill="url(#SVGID_27_)"/></g><g><path d="m184.626 168.823c-14.047-8.543-32.355-4.086-40.899 9.962-8.543 14.047-4.081 32.351 9.966 40.894 14.043 8.543 32.355 4.086 40.899-9.958 8.544-14.047 4.077-32.355-9.966-40.898zm5.364 38.096c-6.997 11.503-21.991 15.16-33.494 8.162-11.503-6.997-15.16-21.995-8.162-33.498 6.993-11.503 21.991-15.151 33.494-8.153 11.503 6.993 15.155 21.986 8.162 33.489z" fill="url(#SVGID_28_)"/></g></g></g><g><g><circle cx="329.458" cy="159.282" fill="url(#SVGID_29_)" r="80.411"/><circle cx="329.458" cy="159.282" fill="url(#SVGID_30_)" r="73.657"/><circle cx="329.458" cy="159.282" fill="url(#SVGID_31_)" r="67.297"/><circle cx="329.458" cy="159.282" fill="url(#SVGID_32_)" r="59.693"/><circle cx="329.458" cy="159.282" fill="url(#SVGID_33_)" r="52.192"/></g><g><path d="m329.458 47.621c-61.668 0-111.661 49.993-111.661 111.661s49.994 111.661 111.661 111.661 111.661-49.993 111.661-111.661-49.994-111.661-111.661-111.661zm70.162 97.517c-11.503 6.997-26.497 3.346-33.494-8.158-6.993-11.503-3.341-26.497 8.162-33.494s26.501-3.346 33.494 8.158c6.998 11.503 3.342 26.497-8.162 33.494zm-70.162-28.778c-13.465 0-24.377-10.908-24.377-24.373s10.912-24.382 24.377-24.382 24.377 10.916 24.377 24.382-10.912 24.373-24.377 24.373zm-36.669 20.62c-6.997 11.503-21.991 15.155-33.494 8.158s-15.16-21.991-8.162-33.494 21.995-15.155 33.498-8.158c11.503 6.998 15.155 21.991 8.158 33.494zm-33.498 36.45c11.503-6.997 26.501-3.35 33.498 8.153 6.993 11.503 3.337 26.501-8.167 33.498-11.503 6.997-26.497 3.341-33.49-8.162-6.997-11.503-3.345-26.496 8.159-33.489zm70.167 28.773c13.465 0 24.377 10.916 24.377 24.377 0 13.465-10.912 24.377-24.377 24.377s-24.377-10.912-24.377-24.377c-.001-13.46 10.912-24.377 24.377-24.377zm36.673-20.62c6.993-11.503 21.991-15.151 33.494-8.153 11.503 6.993 15.155 21.986 8.162 33.49-6.997 11.503-21.991 15.16-33.494 8.162s-15.16-21.995-8.162-33.499z" fill="url(#SVGID_34_)"/><path d="m329.458 52.31c-59.075 0-106.971 47.896-106.971 106.971s47.896 106.971 106.971 106.971 106.971-47.896 106.971-106.971-47.896-106.971-106.971-106.971zm78.329 154.609c-6.997 11.503-21.991 15.16-33.494 8.162-11.503-6.997-15.16-21.995-8.162-33.498 6.993-11.503 21.991-15.151 33.494-8.153 11.503 6.993 15.155 21.986 8.162 33.489zm-78.329 44.039c-13.465 0-24.377-10.912-24.377-24.377 0-13.461 10.912-24.377 24.377-24.377s24.377 10.916 24.377 24.377c0 13.465-10.912 24.377-24.377 24.377zm-78.325-44.039c-6.997-11.503-3.345-26.497 8.158-33.49 11.503-6.997 26.501-3.35 33.498 8.153 6.993 11.503 3.337 26.501-8.167 33.498-11.503 6.999-26.496 3.343-33.489-8.161zm0-95.275c6.997-11.503 21.995-15.155 33.498-8.158s15.155 21.991 8.158 33.494-21.991 15.155-33.494 8.158-15.16-21.991-8.162-33.494zm78.325-44.038c13.465 0 24.377 10.916 24.377 24.382s-10.912 24.373-24.377 24.373-24.377-10.908-24.377-24.373 10.912-24.382 24.377-24.382zm78.324 44.038c6.997 11.503 3.341 26.497-8.162 33.494s-26.497 3.346-33.494-8.158c-6.993-11.503-3.341-26.497 8.162-33.494 11.504-6.997 26.501-3.345 33.494 8.158z" fill="url(#SVGID_35_)"/><circle cx="329.458" cy="159.282" fill="url(#SVGID_36_)" r="26.433"/></g><g><g><path d="m329.458 62.22c-16.438 0-29.763 13.32-29.763 29.763 0 16.438 13.325 29.768 29.763 29.768s29.763-13.329 29.763-29.768c0-16.443-13.325-29.763-29.763-29.763zm0 54.14c-13.465 0-24.377-10.908-24.377-24.373s10.912-24.382 24.377-24.382 24.377 10.916 24.377 24.382-10.912 24.373-24.377 24.373z" fill="url(#SVGID_37_)"/></g><g><path d="m329.458 196.813c-16.438 0-29.763 13.325-29.763 29.763 0 16.443 13.325 29.768 29.763 29.768s29.763-13.325 29.763-29.768c0-16.438-13.325-29.763-29.763-29.763zm0 54.145c-13.465 0-24.377-10.912-24.377-24.377 0-13.461 10.912-24.377 24.377-24.377s24.377 10.916 24.377 24.377c0 13.465-10.912 24.377-24.377 24.377z" fill="url(#SVGID_38_)"/></g></g><g><g><path d="m412.389 108.842c-8.543-14.043-26.851-18.505-40.899-9.962-14.043 8.543-18.509 26.851-9.966 40.899 8.543 14.047 26.856 18.501 40.899 9.958 14.047-8.544 18.509-26.848 9.966-40.895zm-12.769 36.296c-11.503 6.997-26.497 3.346-33.494-8.158-6.993-11.503-3.341-26.497 8.162-33.494s26.501-3.346 33.494 8.158c6.998 11.503 3.342 26.497-8.162 33.494z" fill="url(#SVGID_39_)"/></g><g><path d="m297.391 178.785c-8.543-14.047-26.851-18.505-40.894-9.962-14.047 8.543-18.514 26.851-9.971 40.899 8.543 14.043 26.856 18.501 40.903 9.958 14.043-8.544 18.505-26.847 9.962-40.895zm-12.769 36.297c-11.503 6.997-26.497 3.341-33.49-8.162-6.997-11.503-3.345-26.497 8.158-33.49 11.503-6.997 26.501-3.35 33.498 8.153 6.994 11.504 3.338 26.501-8.166 33.499z" fill="url(#SVGID_40_)"/></g></g><g><g><path d="m287.425 98.88c-14.047-8.543-32.351-4.081-40.894 9.962-8.543 14.047-4.085 32.351 9.962 40.894s32.355 4.09 40.899-9.958c8.542-14.047 4.08-32.355-9.967-40.898zm5.364 38.1c-6.997 11.503-21.991 15.155-33.494 8.158s-15.16-21.991-8.162-33.494 21.995-15.155 33.498-8.158c11.503 6.998 15.155 21.991 8.158 33.494z" fill="url(#SVGID_41_)"/></g><g><path d="m402.423 168.823c-14.047-8.543-32.355-4.086-40.899 9.962-8.543 14.047-4.081 32.351 9.966 40.894 14.043 8.543 32.355 4.086 40.899-9.958 8.543-14.047 4.077-32.355-9.966-40.898zm5.364 38.096c-6.997 11.503-21.991 15.16-33.494 8.162-11.503-6.997-15.16-21.995-8.162-33.498 6.993-11.503 21.991-15.151 33.494-8.153 11.503 6.993 15.155 21.986 8.162 33.489z" fill="url(#SVGID_42_)"/></g></g></g></g></g></svg>