<?xml version="1.0" encoding="iso-8859-1"?>
<!-- Generator: Adobe Illustrator 19.0.0, SVG Export Plug-In . SVG Version: 6.00 Build 0)  -->
<svg version="1.1" id="Layer_1" xmlns="http://www.w3.org/2000/svg" xmlns:xlink="http://www.w3.org/1999/xlink" x="0px" y="0px"
	 viewBox="0 0 512 512" style="enable-background:new 0 0 512 512;" xml:space="preserve">
<g>
	<g>
		<path d="M432.172,174.142V97.119L335.053,0H26.61v512h405.563V352.299c31.661-17.121,53.218-50.628,53.218-89.079
			C485.391,224.771,463.834,191.262,432.172,174.142z M343.963,51.925l36.285,36.285h-36.285V51.925z M401.755,481.583H57.027
			V30.417h256.519v88.21h88.21v44.92c-0.194-0.034-0.39-0.057-0.585-0.089c-1.064-0.18-2.132-0.344-3.206-0.491
			c-0.258-0.035-0.513-0.075-0.771-0.108c-1.211-0.156-2.429-0.284-3.652-0.396c-0.302-0.027-0.604-0.056-0.906-0.081
			c-1.234-0.102-2.475-0.183-3.721-0.241c-0.243-0.011-0.488-0.018-0.732-0.028c-1.323-0.052-2.649-0.085-3.985-0.085
			c-55.798,0-101.195,45.396-101.195,101.195s45.396,101.195,101.195,101.195c1.336,0,2.664-0.034,3.988-0.085
			c0.243-0.009,0.486-0.016,0.729-0.027c1.246-0.058,2.486-0.139,3.72-0.241c0.304-0.025,0.608-0.054,0.912-0.081
			c1.222-0.112,2.439-0.24,3.649-0.396c0.259-0.033,0.515-0.073,0.773-0.108c1.074-0.147,2.141-0.31,3.204-0.491
			c0.193-0.034,0.389-0.057,0.583-0.091V481.583z M409.2,329.423c-0.285,0.107-0.568,0.224-0.854,0.329
			c-0.786,0.286-1.583,0.548-2.381,0.807c-0.303,0.098-0.604,0.205-0.908,0.299c-0.817,0.252-1.645,0.481-2.474,0.705
			c-0.289,0.078-0.575,0.164-0.864,0.238c-0.855,0.219-1.72,0.412-2.586,0.598c-0.272,0.059-0.541,0.127-0.814,0.181
			c-0.877,0.178-1.763,0.33-2.652,0.474c-0.272,0.045-0.541,0.099-0.813,0.14c-0.882,0.134-1.773,0.239-2.665,0.34
			c-0.286,0.032-0.569,0.076-0.855,0.104c-0.895,0.09-1.801,0.15-2.705,0.206c-0.285,0.017-0.568,0.048-0.854,0.062
			c-1.185,0.06-2.378,0.091-3.577,0.091c-39.026,0-70.778-31.75-70.778-70.778s31.751-70.778,70.778-70.778
			c1.199,0,2.392,0.031,3.576,0.09c0.291,0.014,0.579,0.046,0.87,0.063c0.899,0.056,1.798,0.116,2.688,0.205
			c0.297,0.029,0.591,0.075,0.887,0.108c0.88,0.099,1.758,0.203,2.629,0.335c0.29,0.044,0.577,0.101,0.866,0.149
			c0.87,0.143,1.738,0.29,2.596,0.464c0.295,0.06,0.586,0.133,0.88,0.197c0.844,0.182,1.685,0.37,2.518,0.582
			c0.314,0.08,0.626,0.174,0.939,0.259c0.804,0.217,1.606,0.438,2.399,0.682c0.331,0.102,0.658,0.218,0.988,0.325
			c0.772,0.25,1.541,0.504,2.301,0.78c0.312,0.114,0.62,0.24,0.931,0.358c26.688,10.143,45.711,35.974,45.711,66.178
			C454.973,293.447,435.921,319.296,409.2,329.423z"/>
	</g>
</g>
<g>
	<g>
		<polygon points="399.405,248.012 399.405,208.617 368.988,208.617 368.988,278.429 438.8,278.429 438.8,248.012 		"/>
	</g>
</g>
<g>
	<g>
		<rect x="96.565" y="88.585" width="100.823" height="30.417"/>
	</g>
</g>
<g>
	<g>
		<rect x="96.565" y="139.321" width="161.211" height="30.417"/>
	</g>
</g>
<g>
	<g>
		<rect x="96.565" y="190.057" width="161.211" height="30.417"/>
	</g>
</g>
<g>
	<g>
		<rect x="96.565" y="240.793" width="161.211" height="30.417"/>
	</g>
</g>
<g>
	<g>
		<rect x="96.565" y="291.529" width="161.211" height="30.417"/>
	</g>
</g>
<g>
	<g>
		<rect x="96.565" y="342.265" width="161.211" height="30.417"/>
	</g>
</g>
<g>
	<g>
		<rect x="96.565" y="393.001" width="161.211" height="30.417"/>
	</g>
</g>
</svg>
